<svg width="23" height="22" viewBox="0 0 23 22" fill="none" xmlns="http://www.w3.org/2000/svg">
<path d="M11.4145 18.2667L5.88117 21.6C5.63672 21.7556 5.38117 21.8222 5.1145 21.8C4.84783 21.7778 4.6145 21.6889 4.4145 21.5333C4.2145 21.3778 4.05895 21.1836 3.94783 20.9507C3.83672 20.7178 3.8145 20.4564 3.88117 20.1667L5.34783 13.8667L0.447834 9.63333C0.225612 9.43333 0.0869455 9.20533 0.0318344 8.94933C-0.0232767 8.69333 -0.00683235 8.44356 0.0811677 8.2C0.169168 7.95644 0.302501 7.75644 0.481168 7.6C0.659834 7.44355 0.904279 7.34356 1.2145 7.3L7.68117 6.73333L10.1812 0.8C10.2923 0.533333 10.4647 0.333333 10.6985 0.2C10.9323 0.0666665 11.1709 0 11.4145 0C11.6581 0 11.8967 0.0666665 12.1305 0.2C12.3643 0.333333 12.5367 0.533333 12.6478 0.8L15.1478 6.73333L21.6145 7.3C21.9256 7.34444 22.1701 7.44444 22.3478 7.6C22.5256 7.75555 22.6589 7.95556 22.7478 8.2C22.8367 8.44444 22.8536 8.69467 22.7985 8.95067C22.7434 9.20667 22.6043 9.43422 22.3812 9.63333L17.4812 13.8667L18.9478 20.1667C19.0145 20.4556 18.9923 20.7169 18.8812 20.9507C18.7701 21.1844 18.6145 21.3787 18.4145 21.5333C18.2145 21.688 17.9812 21.7769 17.7145 21.8C17.4478 21.8231 17.1923 21.7564 16.9478 21.6L11.4145 18.2667Z" fill="#F3993F"/>
</svg>
